# xmcd
#
# Track frame offsets: 
#        150
#        11975
#        22220
#        33847
#        49137
#        66387
#        78712
#        91137
#        100935
#        118125
#        128875
#        141875
#        152730
#        163900
#        173425
#        183762
#        195300
#
# Disc length: 2718 seconds
#
# Revision: 0
# Processed by: cddbd v1.5.1PL0 Copyright (c) Steve Scherf et al.
# Submitted via: ExactAudioCopy v0.95b3
#
DISCID=e50a9c11
DTITLE=Various Artist - Kings of Country
DYEAR=1900
DGENRE=Country
TTITLE0=Willie Nelson - Is There Something on Your Mind
TTITLE1=Faron Young - Hello Walls
TTITLE2=Johnny Lee - Candy Store
TTITLE3=Kenny Rogers - For the Good Times
TTITLE4=Johnny Paycheck - Billy Jack Washburn
TTITLE5=Stonewall Jackson - Ol' Blue
TTITLE6=Willie Nelson - Shelter of My Arms
TTITLE7=Carl Perkins - This Ole House
TTITLE8=Kenny Rogers - Something's Burning
TTITLE9=Waylon Jennings - Sally Was a Good Old Girl
TTITLE10=Frankie Laine - Moonlight Gambler
TTITLE11=Faron Young - Wine Me Up
TTITLE12=Hank Locklin - Send Me the Pillow that You Dream on
TTITLE13=Willie Nelson - Building Heartaches
TTITLE14=Dave Dudley - Sad and Lonely Days
TTITLE15=Guy Mitchell - Heartaches by the Number
TTITLE16=Conway Twitty - Blue Is the Way I Feel
EXTD=
EXTT0=
EXTT1=
EXTT2=
EXTT3=
EXTT4=
EXTT5=
EXTT6=
EXTT7=
EXTT8=
EXTT9=
EXTT10=
EXTT11=
EXTT12=
EXTT13=
EXTT14=
EXTT15=
EXTT16=
PLAYORDER=
